HIERARCHY
ROOT Hips
{
	OFFSET 0.000000 0.000000 0.000000
	CHANNELS 6 Xposition Yposition Zposition Xrotation Yrotation Zrotation
	JOINT LeftUpLeg_virtual
	{
		OFFSET 0.000000 0.000000 0.000000
		CHANNELS 3 Xrotation Yrotation Zrotation
		JOINT LeftUpLeg
		{
			OFFSET 13.026900 -6.336304 -1.092800
			CHANNELS 3 Xrotation Yrotation Zrotation
			JOINT LeftLeg
			{
				OFFSET 0.524474 -46.096886 9.782700
				CHANNELS 3 Xrotation Yrotation Zrotation
				JOINT LeftFoot
				{
					OFFSET -0.524474 -53.427422 -12.948200
					CHANNELS 3 Xrotation Yrotation Zrotation
					JOINT LeftToeBase
					{
						OFFSET 0.192200 -14.009700 16.364100
						CHANNELS 3 Xrotation Yrotation Zrotation
						JOINT LeftToe_End
						{
							OFFSET -1.784700 -0.561700 9.474800
							CHANNELS 3 Xrotation Yrotation Zrotation
							End Site
							{
								OFFSET 0 0 0
							}
						}
					}
				}
			}
		}
	}
	JOINT RightUpLeg_virtual
	{
		OFFSET 0.000000 0.000000 0.000000
		CHANNELS 3 Xrotation Yrotation Zrotation
		JOINT RightUpLeg
		{
			OFFSET -12.883000 -6.336304 -1.092800
			CHANNELS 3 Xrotation Yrotation Zrotation
			JOINT RightLeg
			{
				OFFSET -0.524587 -46.096825 9.782800
				CHANNELS 3 Xrotation Yrotation Zrotation
				JOINT RightFoot
				{
					OFFSET 0.524587 -53.427383 -12.948300
					CHANNELS 3 Xrotation Yrotation Zrotation
					JOINT RightToeBase
					{
						OFFSET -0.192200 -14.009700 16.364100
						CHANNELS 3 Xrotation Yrotation Zrotation
						JOINT RightToe_End
						{
							OFFSET 1.784700 -0.561700 9.474800
							CHANNELS 3 Xrotation Yrotation Zrotation
							End Site
							{
								OFFSET 0 0 0
							}
						}
					}
				}
			}
		}
	}
	JOINT Spine_virtual
	{
		OFFSET 0.000000 0.000000 0.000000
		CHANNELS 3 Xrotation Yrotation Zrotation
		JOINT Spine
		{
			OFFSET 0.072000 7.257294 -0.789700
			CHANNELS 3 Xrotation Yrotation Zrotation
			JOINT Spine1
			{
				OFFSET 0.000000 12.508769 -0.658067
				CHANNELS 3 Xrotation Yrotation Zrotation
				JOINT Spine1_split
				{
					OFFSET 0.000000 12.508769 -0.658067
					CHANNELS 3 Xrotation Yrotation Zrotation
					JOINT Spine2
					{
						OFFSET 0.000000 12.508769 -0.658067
						CHANNELS 3 Xrotation Yrotation Zrotation
						JOINT Neck_virtual
						{
							OFFSET 0.000000 0.000000 0.000000
							CHANNELS 3 Xrotation Yrotation Zrotation
							JOINT Neck
							{
								OFFSET 0.000000 14.033295 7.520400
								CHANNELS 3 Xrotation Yrotation Zrotation
								JOINT Head
								{
									OFFSET 0.000000 8.198502 5.703100
									CHANNELS 3 Xrotation Yrotation Zrotation
									JOINT HeadTop_End
									{
										OFFSET 0.000000 17.760803 13.332701
										CHANNELS 3 Xrotation Yrotation Zrotation
										End Site
										{
											OFFSET 0 0 0
										}
									}
								}
							}
						}
						JOINT LeftShoulder_virtual
						{
							OFFSET 0.000000 0.000000 0.000000
							CHANNELS 3 Xrotation Yrotation Zrotation
							JOINT LeftShoulder
							{
								OFFSET 6.292450 5.785301 -0.669000
								CHANNELS 3 Xrotation Yrotation Zrotation
								JOINT LeftShoulder_split
								{
									OFFSET 6.292450 5.785301 -0.669000
									CHANNELS 3 Xrotation Yrotation Zrotation
									JOINT LeftArm
									{
										OFFSET 13.907140 -6.093903 1.965100
										CHANNELS 3 Xrotation Yrotation Zrotation
										JOINT LeftForeArm
										{
											OFFSET 34.140198 0.000000 0.000000
											CHANNELS 3 Xrotation Yrotation Zrotation
											JOINT LeftHand
											{
												OFFSET 40.960209 0.000000 0.000000
												CHANNELS 3 Xrotation Yrotation Zrotation
												End Site
												{
													OFFSET 0 0 0
												}
											}
										}
									}
								}
							}
						}
						JOINT RightShoulder_virtual
						{
							OFFSET 0.000000 0.000000 0.000000
							CHANNELS 3 Xrotation Yrotation Zrotation
							JOINT RightShoulder
							{
								OFFSET -6.292450 5.785301 -0.669000
								CHANNELS 3 Xrotation Yrotation Zrotation
								JOINT RightShoulder_split
								{
									OFFSET -6.292450 5.785301 -0.669000
									CHANNELS 3 Xrotation Yrotation Zrotation
									JOINT RightArm
									{
										OFFSET -13.907140 -6.093903 1.965100
										CHANNELS 3 Xrotation Yrotation Zrotation
										JOINT RightForeArm
										{
											OFFSET -34.140198 0.000000 0.000000
											CHANNELS 3 Xrotation Yrotation Zrotation
											JOINT RightHand
											{
												OFFSET -40.960209 0.000000 0.000000
												CHANNELS 3 Xrotation Yrotation Zrotation
												End Site
												{
													OFFSET 0 0 0
												}
											}
										}
									}
								}
							}
						}
					}
				}
			}
		}
	}
}
MOTION
Frames: 5
Frame Time: 0.03333333
-1.305218 98.791382 1.163788 0.000000 0.000000 0.000000 6.529902 60.743215 -9.826919 -11.456675 8.539616 17.349070 44.897678 -5.874668 11.666710 -21.147990 4.484712 -21.654982 -10.413283 0.010113 -1.095513 0.000000 0.000000 0.000000 8.428785 60.908342 -11.253857 -26.480377 7.419520 -21.229065 26.002091 9.137436 -1.479203 -6.260962 9.251754 11.949956 -6.058673 -0.353511 0.880449 0.000000 0.000000 0.000000 8.071362 62.660306 -9.268545 0.528740 -3.507046 -1.209010 2.772323 -0.645759 -0.382012 1.219084 -0.225682 0.100342 0.000000 0.000000 0.000000 1.719164 -1.104007 -0.095934 -6.598553 -10.406828 -1.930305 -2.858864 -40.975486 5.672636 0.000000 0.000000 0.000000 1.653142 -1.044038 -0.286739 0.394241 -8.242510 -9.162571 -2.956300 -0.211401 -1.865949 3.126365 -46.177478 -46.329815 175.074059 -73.279822 173.829489 0.000000 0.000000 0.000000 2.358403 -0.832174 -0.307886 -0.109460 -2.315837 8.902795 -3.487524 5.986136 -0.577947 -22.893834 -6.864458 46.877545 -178.353929 66.258784 178.265765 0.000000 0.000000 0.000000 
-1.380748 102.175446 1.051975 0.000000 0.000000 0.000000 6.242112 58.922703 -9.765385 -11.042699 7.210897 17.711445 42.829084 -2.934435 9.939582 -18.054295 5.955665 -18.247398 -8.969914 0.188632 -1.930419 0.000000 0.000000 0.000000 8.682756 58.447766 -11.156094 -25.627013 5.721100 -20.786076 22.320816 10.159269 -1.259513 -4.158497 11.088676 15.637797 -8.255548 0.047048 0.382758 0.000000 0.000000 0.000000 8.042352 60.045580 -9.230050 0.132527 -3.599324 -0.694834 2.502787 -0.682133 -0.287698 1.439870 -0.242123 0.079977 0.000000 0.000000 0.000000 2.054290 -1.033009 -0.085843 -6.285322 -10.243775 -1.601061 -2.537101 -40.907448 5.663064 0.000000 0.000000 0.000000 1.673339 -1.059740 -0.167545 0.398801 -8.521886 -8.333163 -3.607004 -1.127713 -0.682848 -0.192074 -46.558101 -46.617411 176.456107 -72.014059 175.474813 0.000000 0.000000 0.000000 2.383369 -0.807067 -0.188617 -0.032055 -2.120322 8.668647 -3.914500 4.812112 -1.425274 -24.298620 -7.452635 46.031537 -178.941517 64.912130 178.576580 0.000000 0.000000 0.000000 
-1.047951 108.015381 0.013062 0.000000 0.000000 0.000000 5.939380 55.739050 -9.642000 -12.233958 5.622861 18.182611 40.078013 0.217813 7.740618 -10.340871 6.058039 -15.335989 -5.306616 0.389170 -4.339963 0.000000 0.000000 0.000000 9.017924 54.173884 -11.040453 -23.987489 3.783175 -19.167060 15.864463 10.742248 -0.593495 -1.590081 12.955130 18.054726 -8.326217 0.442990 0.153666 0.000000 0.000000 0.000000 8.154609 55.553395 -9.213661 -0.219906 -3.407445 0.187868 2.265408 -0.582826 -0.271266 1.502381 -0.050241 0.158998 0.000000 0.000000 0.000000 2.439943 -0.826535 -0.140028 -5.796874 -9.669740 -1.092889 -1.926983 -39.556320 5.709995 0.000000 0.000000 0.000000 1.820725 -0.902315 -0.101944 0.426188 -8.273883 -6.977095 -3.291920 -1.687637 -0.549202 -4.926394 -46.257156 -46.692748 177.950743 -69.993060 177.079594 0.000000 0.000000 0.000000 2.415623 -0.711471 -0.192410 0.094518 -1.562948 8.224467 -3.801524 3.492988 -1.373187 -26.436242 -6.469801 43.605680 -178.840840 63.491963 178.224374 0.000000 0.000000 0.000000 
-0.333116 114.406128 -1.751446 0.000000 0.000000 0.000000 5.287742 50.974422 -9.253060 -14.212441 4.180371 18.515378 38.387780 2.356832 5.823470 1.037243 4.264124 -13.518887 -7.369925 0.481406 -5.648240 0.000000 0.000000 0.000000 8.484134 48.763418 -10.387650 -22.348335 1.626221 -16.724256 10.279892 10.101934 0.120886 0.443805 13.292670 17.904192 -6.394074 0.694754 0.213237 0.000000 0.000000 0.000000 7.926262 49.873061 -8.793104 -0.287018 -2.967077 1.135503 2.098169 -0.358006 -0.309542 1.366782 -0.009600 0.193442 0.000000 0.000000 0.000000 2.778225 -0.513789 -0.233693 -5.238815 -8.787179 -0.534377 -1.113070 -36.989443 5.718323 0.000000 0.000000 0.000000 2.044984 -0.619690 -0.093119 0.428745 -7.585744 -5.471012 -2.604180 -1.655414 -1.144067 -10.060362 -44.919651 -46.800169 179.170929 -68.096002 178.307539 0.000000 0.000000 0.000000 2.467935 -0.523770 -0.303822 0.229607 -0.643094 7.773090 -3.333485 2.823687 -0.805002 -28.450736 -3.987349 40.519650 -178.416781 62.588090 177.672331 0.000000 0.000000 0.000000 
0.649676 119.871399 -3.215199 0.000000 0.000000 0.000000 4.176533 45.443533 -8.290426 -15.289477 3.604124 17.874211 37.097677 3.369973 4.635793 10.605375 1.431320 -11.288494 -16.918517 0.631251 -4.921514 0.000000 0.000000 0.000000 6.766489 42.561771 -9.051538 -21.657335 -0.698720 -14.200964 8.636961 8.246618 0.526732 1.672045 11.249340 15.486284 -4.555830 0.764852 0.441913 0.000000 0.000000 0.000000 7.049573 43.977522 -7.780414 0.027460 -2.331979 1.865591 2.062340 -0.032838 -0.369557 1.079648 -0.035628 0.089159 0.000000 0.000000 0.000000 3.012128 -0.145293 -0.320303 -4.680043 -7.610800 -0.056663 -0.218251 -33.505862 5.610638 0.000000 0.000000 0.000000 2.317372 -0.256963 -0.143433 0.371613 -6.597056 -4.195343 -2.096709 -0.976913 -1.771088 -14.580898 -42.754737 -46.956936 179.926485 -66.910213 179.035569 0.000000 0.000000 0.000000 2.532202 -0.227980 -0.471384 0.393459 0.531538 7.600100 -2.736694 2.937499 -0.461273 -29.750409 -0.577977 37.709024 -177.954172 62.552491 177.243914 0.000000 0.000000 0.000000 
